{
  "source": "C:\\Users\\Peter\\Desktop\\stuff\\MIUN\\quantitative_research\\video_compression\\videos\\BVI-HD\\BVI-HD_CDVL_videos\\ORIG\\ParkPlay_1920x1080_50fps.mp4",
  "output": "C:\\Users\\Peter\\Desktop\\stuff\\MIUN\\quantitative_research\\video_compression\\compressed_videos\\BVI-HD\\vp9\\2\\ParkPlay_1920x1080_50fps_vp9.webm",
  "codec": "vp9",
  "ok": "Input #0, mov,mp4,m4a,3gp,3g2,mj2, from 'C:\\Users\\Peter\\Desktop\\stuff\\MIUN\\quantitative_research\\video_compression\\videos\\BVI-HD\\BVI-HD_CDVL_videos\\ORIG\\ParkPlay_1920x1080_50fps.mp4':\n  Metadata:\n    major_brand     : isom\n    minor_version   : 512\n    compatible_brands: isomiso2avc1mp41\n    encoder         : Lavf54.28.101\n  Duration: 00:00:05.00, start: 0.000000, bitrate: 620563 kb/s\n  Stream #0:0[0x1](und): Video: h264 (High 4:4:4 Predictive) (avc1 / 0x31637661), yuv420p(progressive), 1920x1080, 620558 kb/s, 50 fps, 50 tbr, 50 tbn (default)\n    Metadata:\n      handler_name    : VideoHandler\n      vendor_id       : [0][0][0][0]\n[out#0/webm @ 0000018a3172f040] Codec AVOption b:a (set bitrate (in bits/s)) has not been used for any stream. The most likely reason is either wrong type (e.g. a video option with no video streams) or that it is a private option of some decoder which was not actually used for any stream.\nStream mapping:\n  Stream #0:0 -> #0:0 (h264 (native) -> vp9 (libvpx-vp9))\nPress [q] to stop, [?] for help\n[libvpx-vp9 @ 0000018a31530a80] v1.15.2-100-g40561f514\nOutput #0, webm, to 'C:\\Users\\Peter\\Desktop\\stuff\\MIUN\\quantitative_research\\video_compression\\compressed_videos\\BVI-HD\\vp9\\2\\ParkPlay_1920x1080_50fps_vp9.webm':\n  Metadata:\n    major_brand     : isom\n    minor_version   : 512\n    compatible_brands: isomiso2avc1mp41\n    encoder         : Lavf62.3.100\n  Stream #0:0(und): Video: vp9, yuv420p(tv, progressive), 1920x1080, q=2-31, 2000 kb/s, 50 fps, 1k tbn (default)\n    Metadata:\n      encoder         : Lavc62.11.100 libvpx-vp9\n      handler_name    : VideoHandler\n      vendor_id       : [0][0][0][0]\n    Side data:\n      cpb: bitrate max/min/avg: 0/0/0 buffer size: 2000000 vbv_delay: N/A\nframe=    0 fps=0.0 q=0.0 size=       0KiB time=N/A bitrate=N/A speed=N/A elapsed=0:00:01.12    \nframe=    1 fps=0.4 q=32.0 size=       1KiB time=00:00:00.02 bitrate= 253.6kbits/s speed=0.00887x elapsed=0:00:02.25    \nframe=    6 fps=2.1 q=62.0 size=       1KiB time=00:00:00.12 bitrate=  42.3kbits/s speed=0.0428x elapsed=0:00:02.80    \nframe=   10 fps=3.0 q=61.0 size=       1KiB time=00:00:00.20 bitrate=  25.4kbits/s speed=0.0597x elapsed=0:00:03.35    \nframe=   12 fps=3.1 q=48.0 size=       1KiB time=00:00:00.24 bitrate=  21.1kbits/s speed=0.0616x elapsed=0:00:03.89    \nframe=   15 fps=3.4 q=60.0 size=       1KiB time=00:00:00.30 bitrate=  16.9kbits/s speed=0.0674x elapsed=0:00:04.45    \nframe=   19 fps=3.8 q=60.0 size=       1KiB time=00:00:00.38 bitrate=  13.3kbits/s speed=0.0759x elapsed=0:00:05.00    \nframe=   22 fps=3.9 q=60.0 size=       1KiB time=00:00:00.44 bitrate=  11.5kbits/s speed=0.0787x elapsed=0:00:05.59    \nframe=   24 fps=3.9 q=60.0 size=       1KiB time=00:00:00.48 bitrate=  10.6kbits/s speed=0.0773x elapsed=0:00:06.21    \nframe=   27 fps=4.0 q=60.0 size=       1KiB time=00:00:00.54 bitrate=   9.4kbits/s speed=0.0795x elapsed=0:00:06.78    \nframe=   30 fps=4.1 q=61.0 size=       1KiB time=00:00:00.60 bitrate=   8.5kbits/s speed=0.0817x elapsed=0:00:07.34    \nframe=   33 fps=4.2 q=61.0 size=       1KiB time=00:00:00.66 bitrate=   7.7kbits/s speed=0.0837x elapsed=0:00:07.88    \nframe=   36 fps=4.3 q=59.0 size=       1KiB time=00:00:00.72 bitrate=   7.0kbits/s speed=0.0852x elapsed=0:00:08.44    \nframe=   39 fps=4.3 q=60.0 size=       1KiB time=00:00:00.78 bitrate=   6.5kbits/s speed=0.0867x elapsed=0:00:08.99    \nframe=   42 fps=4.4 q=60.0 size=       1KiB time=00:00:00.84 bitrate=   6.0kbits/s speed=0.0876x elapsed=0:00:09.59    \nframe=   45 fps=4.4 q=61.0 size=       1KiB time=00:00:00.90 bitrate=   5.6kbits/s speed=0.0888x elapsed=0:00:10.13    \nframe=   48 fps=4.5 q=60.0 size=       1KiB time=00:00:00.96 bitrate=   5.3kbits/s speed=0.0892x elapsed=0:00:10.76    \nframe=   51 fps=4.5 q=62.0 size=       1KiB time=00:00:01.02 bitrate=   5.0kbits/s speed=0.0902x elapsed=0:00:11.30    \nframe=   53 fps=4.5 q=62.0 size=       1KiB time=00:00:01.06 bitrate=   4.8kbits/s speed=0.0893x elapsed=0:00:11.86    \nframe=   56 fps=4.5 q=61.0 size=       1KiB time=00:00:01.12 bitrate=   4.5kbits/s speed=0.0904x elapsed=0:00:12.38    \nframe=   58 fps=4.5 q=50.0 size=       1KiB time=00:00:01.16 bitrate=   4.4kbits/s speed=0.0898x elapsed=0:00:12.91    \nframe=   62 fps=4.6 q=60.0 size=       1KiB time=00:00:01.24 bitrate=   4.1kbits/s speed=0.092x elapsed=0:00:13.47    \nframe=   64 fps=4.6 q=50.0 size=       1KiB time=00:00:01.28 bitrate=   4.0kbits/s speed=0.0911x elapsed=0:00:14.05    \nframe=   67 fps=4.6 q=60.0 size=       1KiB time=00:00:01.34 bitrate=   3.8kbits/s speed=0.0912x elapsed=0:00:14.68    \nframe=   69 fps=4.5 q=61.0 size=       1KiB time=00:00:01.38 bitrate=   3.7kbits/s speed=0.0904x elapsed=0:00:15.26    \nframe=   73 fps=4.6 q=60.0 size=       1KiB time=00:00:01.46 bitrate=   3.5kbits/s speed=0.0923x elapsed=0:00:15.82    \nframe=   75 fps=4.6 q=60.0 size=       1KiB time=00:00:01.50 bitrate=   3.4kbits/s speed=0.0917x elapsed=0:00:16.36    \nframe=   78 fps=4.6 q=59.0 size=       1KiB time=00:00:01.56 bitrate=   3.3kbits/s speed=0.0919x elapsed=0:00:16.97    \nframe=   81 fps=4.6 q=60.0 size=       1KiB time=00:00:01.62 bitrate=   3.1kbits/s speed=0.0924x elapsed=0:00:17.53    \nframe=   85 fps=4.7 q=59.0 size=       1KiB time=00:00:01.70 bitrate=   3.0kbits/s speed=0.0941x elapsed=0:00:18.07    \nframe=   87 fps=4.7 q=59.0 size=       1KiB time=00:00:01.74 bitrate=   2.9kbits/s speed=0.0935x elapsed=0:00:18.61    \nframe=   90 fps=4.7 q=58.0 size=       1KiB time=00:00:01.80 bitrate=   2.8kbits/s speed=0.094x elapsed=0:00:19.14    \nframe=   93 fps=4.7 q=59.0 size=       1KiB time=00:00:01.86 bitrate=   2.7kbits/s speed=0.0946x elapsed=0:00:19.66    \nframe=   95 fps=4.7 q=60.0 size=       1KiB time=00:00:01.90 bitrate=   2.7kbits/s speed=0.0941x elapsed=0:00:20.18    \nframe=   98 fps=4.7 q=59.0 size=       1KiB time=00:00:01.96 bitrate=   2.6kbits/s speed=0.0946x elapsed=0:00:20.70    \nframe=  100 fps=4.7 q=49.0 size=       1KiB time=00:00:02.00 bitrate=   2.5kbits/s speed=0.0942x elapsed=0:00:21.23    \nframe=  103 fps=4.7 q=59.0 size=       1KiB time=00:00:02.06 bitrate=   2.5kbits/s speed=0.0946x elapsed=0:00:21.76    \nframe=  106 fps=4.8 q=50.0 size=       1KiB time=00:00:02.12 bitrate=   2.4kbits/s speed=0.0951x elapsed=0:00:22.29    \nframe=  109 fps=4.8 q=58.0 size=       1KiB time=00:00:02.18 bitrate=   2.3kbits/s speed=0.0954x elapsed=0:00:22.84    \nframe=  111 fps=4.7 q=58.0 size=       1KiB time=00:00:02.22 bitrate=   2.3kbits/s speed=0.0948x elapsed=0:00:23.41    \nframe=  114 fps=4.8 q=57.0 size=       1KiB time=00:00:02.28 bitrate=   2.2kbits/s speed=0.0951x elapsed=0:00:23.97    \nframe=  117 fps=4.8 q=58.0 size=       1KiB time=00:00:02.34 bitrate=   2.2kbits/s speed=0.0954x elapsed=0:00:24.53    \nframe=  119 fps=4.7 q=59.0 size=       1KiB time=00:00:02.38 bitrate=   2.1kbits/s speed=0.0948x elapsed=0:00:25.10    \nframe=  122 fps=4.8 q=58.0 size=       1KiB time=00:00:02.44 bitrate=   2.1kbits/s speed=0.0952x elapsed=0:00:25.62    \nframe=  125 fps=4.8 q=60.0 size=       1KiB time=00:00:02.50 bitrate=   2.0kbits/s speed=0.0956x elapsed=0:00:26.15    \nframe=  128 fps=4.8 q=59.0 size=       1KiB time=00:00:02.56 bitrate=   2.0kbits/s speed=0.0959x elapsed=0:00:26.69    \nframe=  131 fps=4.8 q=57.0 size=     512KiB time=00:00:02.62 bitrate=1600.9kbits/s speed=0.0962x elapsed=0:00:27.24    \nframe=  134 fps=4.8 q=58.0 size=     512KiB time=00:00:02.68 bitrate=1565.0kbits/s speed=0.0965x elapsed=0:00:27.78    \nframe=  137 fps=4.8 q=57.0 size=     512KiB time=00:00:02.74 bitrate=1530.8kbits/s speed=0.0968x elapsed=0:00:28.30    \nframe=  139 fps=4.8 q=58.0 size=     512KiB time=00:00:02.78 bitrate=1508.7kbits/s speed=0.0963x elapsed=0:00:28.86    \nframe=  140 fps=4.8 q=59.0 size=     512KiB time=00:00:02.80 bitrate=1498.0kbits/s speed=0.095x elapsed=0:00:29.45    \nframe=  143 fps=4.8 q=58.0 size=     512KiB time=00:00:02.84 bitrate=1476.9kbits/s speed=0.0946x elapsed=0:00:30.00    \nframe=  145 fps=4.7 q=59.0 size=     512KiB time=00:00:02.88 bitrate=1456.4kbits/s speed=0.094x elapsed=0:00:30.65    \nframe=  146 fps=4.7 q=59.0 size=     512KiB time=00:00:02.92 bitrate=1436.4kbits/s speed=0.0933x elapsed=0:00:31.29    \nframe=  149 fps=4.7 q=58.0 size=     512KiB time=00:00:02.98 bitrate=1407.5kbits/s speed=0.0934x elapsed=0:00:31.89    \nframe=  152 fps=4.7 q=59.0 size=     512KiB time=00:00:03.04 bitrate=1379.7kbits/s speed=0.0937x elapsed=0:00:32.45    \nframe=  155 fps=4.7 q=58.0 size=     512KiB time=00:00:03.10 bitrate=1353.0kbits/s speed=0.0939x elapsed=0:00:33.00    \nframe=  158 fps=4.7 q=59.0 size=     512KiB time=00:00:03.16 bitrate=1327.3kbits/s speed=0.0942x elapsed=0:00:33.54    \nframe=  160 fps=4.7 q=59.0 size=     512KiB time=00:00:03.20 bitrate=1310.7kbits/s speed=0.0939x elapsed=0:00:34.07    \nframe=  162 fps=4.7 q=59.0 size=     512KiB time=00:00:03.24 bitrate=1294.5kbits/s speed=0.0935x elapsed=0:00:34.66    \nframe=  164 fps=4.7 q=59.0 size=     512KiB time=00:00:03.28 bitrate=1278.8kbits/s speed=0.0931x elapsed=0:00:35.21    \nframe=  167 fps=4.7 q=57.0 size=     512KiB time=00:00:03.34 bitrate=1255.8kbits/s speed=0.0934x elapsed=0:00:35.76    \nframe=  169 fps=4.6 q=58.0 size=     512KiB time=00:00:03.38 bitrate=1240.9kbits/s speed=0.0929x elapsed=0:00:36.37    \nframe=  171 fps=4.6 q=50.0 size=     512KiB time=00:00:03.42 bitrate=1226.4kbits/s speed=0.0926x elapsed=0:00:36.91    \nframe=  174 fps=4.6 q=58.0 size=     512KiB time=00:00:03.46 bitrate=1212.2kbits/s speed=0.0923x elapsed=0:00:37.49    \nframe=  176 fps=4.6 q=59.0 size=     512KiB time=00:00:03.52 bitrate=1191.6kbits/s speed=0.0925x elapsed=0:00:38.05    \nframe=  179 fps=4.6 q=57.0 size=     512KiB time=00:00:03.58 bitrate=1171.6kbits/s speed=0.0927x elapsed=0:00:38.60    \nframe=  181 fps=4.6 q=58.0 size=     512KiB time=00:00:03.62 bitrate=1158.6kbits/s speed=0.0924x elapsed=0:00:39.16    \nframe=  183 fps=4.6 q=51.0 size=     512KiB time=00:00:03.66 bitrate=1146.0kbits/s speed=0.0921x elapsed=0:00:39.73    \nframe=  186 fps=4.6 q=59.0 size=     512KiB time=00:00:03.70 bitrate=1133.6kbits/s speed=0.0918x elapsed=0:00:40.29    \nframe=  188 fps=4.6 q=59.0 size=     512KiB time=00:00:03.76 bitrate=1115.5kbits/s speed=0.092x elapsed=0:00:40.89    \nframe=  191 fps=4.6 q=57.0 size=     512KiB time=00:00:03.82 bitrate=1098.0kbits/s speed=0.0922x elapsed=0:00:41.44    \nframe=  194 fps=4.6 q=59.0 size=     512KiB time=00:00:03.88 bitrate=1081.0kbits/s speed=0.0924x elapsed=0:00:42.00    \nframe=  195 fps=4.6 q=51.0 size=     512KiB time=00:00:03.90 bitrate=1075.5kbits/s speed=0.0916x elapsed=0:00:42.56    \nframe=  198 fps=4.6 q=58.0 size=     512KiB time=00:00:03.96 bitrate=1059.2kbits/s speed=0.0919x elapsed=0:00:43.10    \nframe=  200 fps=4.6 q=58.0 size=     512KiB time=00:00:04.00 bitrate=1048.6kbits/s speed=0.0916x elapsed=0:00:43.67    \nframe=  202 fps=4.6 q=58.0 size=     512KiB time=00:00:04.04 bitrate=1038.2kbits/s speed=0.0913x elapsed=0:00:44.24    \nframe=  205 fps=4.6 q=58.0 size=     512KiB time=00:00:04.10 bitrate=1023.0kbits/s speed=0.0916x elapsed=0:00:44.77    \nframe=  208 fps=4.6 q=58.0 size=     512KiB time=00:00:04.16 bitrate=1008.2kbits/s speed=0.0918x elapsed=0:00:45.30    \nframe=  211 fps=4.6 q=58.0 size=     512KiB time=00:00:04.20 bitrate= 998.6kbits/s speed=0.0916x elapsed=0:00:45.86    \nframe=  212 fps=4.6 q=58.0 size=     512KiB time=00:00:04.24 bitrate= 989.2kbits/s speed=0.0913x elapsed=0:00:46.44    \nframe=  215 fps=4.6 q=57.0 size=     512KiB time=00:00:04.28 bitrate= 980.0kbits/s speed=0.0911x elapsed=0:00:46.97    \nframe=  217 fps=4.6 q=57.0 size=     512KiB time=00:00:04.34 bitrate= 966.4kbits/s speed=0.0913x elapsed=0:00:47.53    \nframe=  219 fps=4.6 q=50.0 size=     512KiB time=00:00:04.38 bitrate= 957.6kbits/s speed=0.0911x elapsed=0:00:48.06    \nframe=  222 fps=4.6 q=58.0 size=     512KiB time=00:00:04.44 bitrate= 944.7kbits/s speed=0.0914x elapsed=0:00:48.59    \nframe=  224 fps=4.6 q=58.0 size=     512KiB time=00:00:04.48 bitrate= 936.2kbits/s speed=0.0911x elapsed=0:00:49.16    \nframe=  225 fps=4.5 q=50.0 size=     512KiB time=00:00:04.50 bitrate= 932.1kbits/s speed=0.0905x elapsed=0:00:49.73    \nframe=  226 fps=4.5 q=58.0 size=     512KiB time=00:00:04.52 bitrate= 927.9kbits/s speed=0.0898x elapsed=0:00:50.31    \nframe=  226 fps=4.4 q=58.0 size=     512KiB time=00:00:04.52 bitrate= 927.9kbits/s speed=0.0888x elapsed=0:00:50.87    \nframe=  226 fps=4.4 q=58.0 size=     512KiB time=00:00:04.52 bitrate= 927.9kbits/s speed=0.0878x elapsed=0:00:51.49    \nframe=  226 fps=4.3 q=58.0 size=     512KiB time=00:00:04.52 bitrate= 927.9kbits/s speed=0.0869x elapsed=0:00:52.04    \nframe=  226 fps=4.3 q=58.0 size=     512KiB time=00:00:04.52 bitrate= 927.9kbits/s speed=0.0859x elapsed=0:00:52.62    \nframe=  226 fps=4.2 q=58.0 size=     512KiB time=00:00:04.52 bitrate= 927.9kbits/s speed=0.085x elapsed=0:00:53.18    \nframe=  226 fps=4.2 q=58.0 size=     512KiB time=00:00:04.52 bitrate= 927.9kbits/s speed=0.0841x elapsed=0:00:53.74    \nframe=  226 fps=4.2 q=58.0 size=     512KiB time=00:00:04.52 bitrate= 927.9kbits/s speed=0.0832x elapsed=0:00:54.29    \nframe=  226 fps=4.1 q=58.0 size=     512KiB time=00:00:04.52 bitrate= 927.9kbits/s speed=0.0824x elapsed=0:00:54.85    \nframe=  226 fps=4.1 q=58.0 size=     512KiB time=00:00:04.52 bitrate= 927.9kbits/s speed=0.0816x elapsed=0:00:55.38    \nframe=  226 fps=4.0 q=58.0 size=     512KiB time=00:00:04.52 bitrate= 927.9kbits/s speed=0.0808x elapsed=0:00:55.91    \n[out#0/webm @ 0000018a3172f040] video:1340KiB audio:0KiB subtitle:0KiB other streams:0KiB global headers:0KiB muxing overhead: 0.178862%\nframe=  250 fps=4.5 q=57.0 Lsize=    1342KiB time=00:00:05.00 bitrate=2199.1kbits/s speed=0.0891x elapsed=0:00:56.13    \n",
  "seconds": 56.46150016784668,
  "probe_out": {}
}